<svg viewBox="895 510.9178 380 168.1645" width="5000" height="2212.690789473684" xmlns="http://www.w3.org/2000/svg" xmlns:xlink="http://www.w3.org/1999/xlink" preserveAspectRatio="none"><defs></defs><style>.a60p5ZquTEfillColor {fill:#414DBA;fill-opacity:0;}.a60p5ZquTEstrokeColor-str {stroke:#E90260;stroke-opacity:1;}.aBO9lbzKc3fillColor {fill:#F4F7FA;fill-opacity:1;}.aD6z1nYkhcolor {fill:#000000;fill-opacity:1;}.ahs7pIl34ofillColor {fill:#000000;fill-opacity:0;}.ahs7pIl34ostrokeColor-str {stroke:#164073;stroke-opacity:1;}.icon3-str {stroke:#000000;stroke-opacity:1;}.shapeStroke-str {stroke:#F1F1F1;stroke-opacity:1;}</style><g opacity="1" transform="rotate(0 895 510.9178)">
<svg width="190" height="168.1645" x="895" y="510.9178" version="1.1" preserveAspectRatio="none" viewBox="0 0 190 168.1645">
  <defs><rect x="10.51028125" y="10.51028125" width="168.9794375" height="147.1439375" rx="0px" ry="0px" id="id-60p5ZquTE"></rect></defs><use class="a60p5ZquTEfillColor a60p5ZquTEstrokeColor-str" style="stroke-width:21.0205625;" xlink:href="#id-60p5ZquTE"></use>
</svg>
</g><g opacity="1" transform="rotate(0 1085 510.9178)">
<svg width="190" height="168.1645" x="1085" y="510.9178" version="1.1" preserveAspectRatio="none" viewBox="0 0 190 168.1645">
  <defs><rect x="10.51028125" y="10.51028125" width="168.9794375" height="147.1439375" rx="0px" ry="0px" id="id-hs7pIl34o"></rect></defs><use class="ahs7pIl34ofillColor ahs7pIl34ostrokeColor-str" style="stroke-width:21.0205625;" xlink:href="#id-hs7pIl34o"></use>
</svg>
</g><g opacity="1" transform="rotate(0 902.6439 518.5617)">
<svg width="364.7123" height="152.8767" x="902.6439" y="518.5617" version="1.1" preserveAspectRatio="none" viewBox="0 0 364.7123 152.8767">
  <defs><rect x="0" y="0" width="364.7123" height="152.8767" rx="0px" ry="0px" id="id-BO9lbzKc3"></rect></defs><use class="aBO9lbzKc3fillColor shapeStroke-str" style="stroke-width:0;" xlink:href="#id-BO9lbzKc3"></use>
</svg>
</g><g opacity="1" transform="rotate(0 945.2972 550.9657)">
<svg width="279.4058" height="88.0687" x="945.2972" y="550.9657" version="1.1" preserveAspectRatio="none" viewBox="1.56 -26.8 86.04 27.12">
  <g transform="matrix(1 0 0 1 0 0)" class="aD6z1nYkhcolor"><path id="id-D6z1nYkh3" d="M15-26.80L15-26.80Q20.92-26.80 24.72-22.84L24.72-22.84Q28.44-19 28.44-13.24Q28.44-7.48 24.72-3.64L24.72-3.64Q20.92 0.32 15 0.32L15 0.32Q9.08 0.32 5.28-3.64L5.28-3.64Q1.56-7.48 1.56-13.24Q1.56-19 5.28-22.84L5.28-22.84Q9.08-26.80 15-26.80ZM15-2.60L15-2.60Q19.72-2.60 22.64-5.68L22.64-5.68Q25.44-8.64 25.44-13.24L25.44-13.24Q25.44-17.84 22.64-20.80L22.64-20.80Q19.72-23.88 15-23.88L15-23.88Q10.28-23.88 7.36-20.80L7.36-20.80Q4.56-17.84 4.56-13.24L4.56-13.24Q4.56-8.64 7.36-5.68L7.36-5.68Q10.28-2.60 15-2.60Z M38.28-22.42Q37.52-21.76 37.26-20.96Q37-20.16 37-19.26Q37-18.36 37.78-17.60Q38.56-16.84 39.84-16.32Q41.12-15.80 42.76-15.40Q44.40-15 46.10-14.58Q47.80-14.16 49.44-13.62Q51.08-13.08 52.36-12.24L52.36-12.24Q55.20-10.44 55.20-7.32L55.20-7.32Q55.20-3.60 52.42-1.64Q49.64 0.32 44.72 0.32L44.72 0.32Q39.16 0.32 36.24-2L36.24-2Q33.64-4.08 33.28-7.92L33.28-7.92L36.40-7.92Q36.56-5.20 39.04-3.76L39.04-3.76Q41.20-2.52 44.76-2.52L44.76-2.52Q52.20-2.52 52.20-7.20L52.20-7.20Q52.20-8.80 50.86-9.72Q49.52-10.64 47.50-11.24Q45.48-11.84 43.14-12.36Q40.80-12.88 38.78-13.70Q36.76-14.52 35.42-15.86Q34.08-17.20 34.08-19.48L34.08-19.48Q34.08-22.72 36.56-24.76Q39.04-26.80 44.04-26.80L44.04-26.80Q49.08-26.80 51.84-24.48L51.84-24.48Q54.36-22.44 54.52-19.24L54.52-19.24L51.44-19.24Q51.04-22.52 47.20-23.60L47.20-23.60Q45.84-24 43.82-24Q41.80-24 40.42-23.54Q39.04-23.08 38.28-22.42Z M84.12-26.48L87.60-26.48L87.60 0L84.60 0L84.60-21.92L74.80-9.32L64.84-21.92L64.84 0L61.84 0L61.84-26.48L65.32-26.48L74.80-13.92L84.12-26.48Z"/></g>
</svg>
</g></svg>